<svg width="80" height="80" viewBox="0 0 80 80" fill="none" xmlns="http://www.w3.org/2000/svg">
<g clip-path="url(#clip0_27_475)">
<path fill-rule="evenodd" clip-rule="evenodd" d="M14.6794 53.3333C8.06203 53.3333 2.67936 58.7173 2.67936 65.3333C2.67936 71.9493 8.06203 77.3333 14.6794 77.3333C21.2967 77.3333 26.6794 71.9493 26.6794 65.3333C26.6794 58.7173 21.2967 53.3333 14.6794 53.3333ZM14.6794 80C6.59269 80 0.0126953 73.42 0.0126953 65.3333C0.0126953 57.2466 6.59269 50.6666 14.6794 50.6666C22.766 50.6666 29.346 57.2466 29.346 65.3333C29.346 73.42 22.766 80 14.6794 80Z" fill="#C4D600"/>
<path fill-rule="evenodd" clip-rule="evenodd" d="M11.2133 67.0182V67.0262V67.0182ZM22.4746 77.4969C22.1626 77.4969 21.8506 77.3875 21.5973 77.1675C21.4679 77.0542 21.3319 76.9622 21.1919 76.8929L17.3466 74.9915C16.3879 74.5195 15.7933 73.5635 15.7933 72.4995V71.0075C15.7933 70.6795 15.9133 70.3635 16.1306 70.1195C16.2133 70.0262 16.3066 69.9062 16.4079 69.7649C16.8386 69.1649 17.1799 68.4862 17.4173 67.7502C17.5426 67.3662 17.8346 67.0609 18.2093 66.9169V65.4342C17.9253 65.1809 17.8053 64.9316 17.8053 64.5515V62.2489C17.8053 62.1902 17.8093 62.1315 17.8173 62.0729C17.8173 62.0635 17.8813 61.3529 17.3879 60.8076C16.9079 60.2796 15.9826 59.9996 14.7106 59.9996C13.4386 59.9996 12.5133 60.2796 12.0333 60.8076C11.5399 61.3529 11.6039 62.0649 11.6066 62.0942C11.6106 62.1369 11.6159 62.2062 11.6159 62.2489V64.5515C11.6159 64.9302 11.4546 65.2915 11.1719 65.5449L11.2106 66.9435C11.4746 67.1315 11.6613 67.4102 11.7346 67.7275C12.0546 69.1035 12.9066 70.1395 12.9146 70.1502C13.1133 70.3902 13.2266 70.6955 13.2266 71.0075V72.4622C13.2266 73.4849 12.6653 74.4222 11.7613 74.9089L8.16927 76.8475C8.03994 76.9169 7.90927 77.0115 7.78394 77.1302C7.2466 77.6302 6.40127 77.6049 5.89993 77.0662C5.39727 76.5275 5.42527 75.6849 5.9626 75.1809C6.25593 74.9075 6.57327 74.6782 6.90394 74.4995L10.4959 72.5622L10.5426 71.4262C10.1799 70.9049 9.6026 69.9569 9.25327 68.7729C8.8026 68.3075 8.5466 67.6862 8.5466 67.0262V65.4342C8.5466 64.9515 8.68794 64.4809 8.94927 64.0782V62.3155C8.9106 61.8715 8.88127 60.3596 10.0106 59.0716C11.0186 57.9182 12.6013 57.3329 14.7106 57.3329C16.8213 57.3329 18.4039 57.9182 19.4119 59.0729C20.5399 60.3596 20.5106 61.8715 20.4719 62.3155V64.0769C20.7333 64.4796 20.8759 64.9502 20.8759 65.4342V67.0262C20.8759 67.8822 20.4493 68.6529 19.7626 69.1115C19.4573 69.9035 19.0586 70.6449 18.5746 71.3209C18.5359 71.3755 18.4973 71.4275 18.4599 71.4782V72.4995L22.3746 74.5022C22.7213 74.6742 23.0506 74.8955 23.3519 75.1595C23.9079 75.6449 23.9639 76.4862 23.4786 77.0409C23.2146 77.3422 22.8466 77.4969 22.4746 77.4969Z" fill="#C4D600"/>
<path fill-rule="evenodd" clip-rule="evenodd" d="M65.3461 53.3333C58.7288 53.3333 53.3461 58.7173 53.3461 65.3333C53.3461 71.9493 58.7288 77.3333 65.3461 77.3333C71.9634 77.3333 77.3461 71.9493 77.3461 65.3333C77.3461 58.7173 71.9634 53.3333 65.3461 53.3333ZM65.3461 80C57.2594 80 50.6794 73.42 50.6794 65.3333C50.6794 57.2466 57.2594 50.6666 65.3461 50.6666C73.4328 50.6666 80.0128 57.2466 80.0128 65.3333C80.0128 73.42 73.4328 80 65.3461 80Z" fill="#C4D600"/>
<path fill-rule="evenodd" clip-rule="evenodd" d="M61.88 67.0182V67.0262V67.0182ZM73.1413 77.4969C72.8293 77.4969 72.5174 77.3875 72.264 77.1675C72.1347 77.0542 71.9987 76.9622 71.8587 76.8929L68.0133 74.9915C67.0547 74.5195 66.46 73.5635 66.46 72.4995V71.0075C66.46 70.6795 66.58 70.3635 66.7973 70.1195C66.88 70.0262 66.9733 69.9062 67.0747 69.7649C67.5053 69.1649 67.8467 68.4862 68.084 67.7502C68.2093 67.3662 68.5014 67.0609 68.876 66.9169V65.4342C68.592 65.1809 68.472 64.9316 68.472 64.5515V62.2489C68.472 62.1902 68.476 62.1315 68.484 62.0729C68.484 62.0635 68.548 61.3529 68.0547 60.8076C67.5747 60.2796 66.6494 59.9996 65.3774 59.9996C64.1054 59.9996 63.18 60.2796 62.7 60.8076C62.2067 61.3529 62.2707 62.0649 62.2734 62.0942C62.2774 62.1369 62.2827 62.2062 62.2827 62.2489V64.5515C62.2827 64.9302 62.1214 65.2915 61.8387 65.5449L61.8774 66.9435C62.1414 67.1315 62.328 67.4102 62.4013 67.7275C62.7213 69.1035 63.5734 70.1395 63.5814 70.1502C63.78 70.3902 63.8933 70.6955 63.8933 71.0075V72.4622C63.8933 73.4849 63.332 74.4222 62.428 74.9089L58.836 76.8475C58.7067 76.9169 58.576 77.0115 58.4507 77.1302C57.9134 77.6302 57.0693 77.6049 56.5667 77.0662C56.064 76.5275 56.092 75.6849 56.6294 75.1809C56.9227 74.9075 57.24 74.6782 57.5707 74.4995L61.1627 72.5622L61.2094 71.4262C60.8467 70.9049 60.2693 69.9569 59.92 68.7729C59.4693 68.3075 59.2133 67.6862 59.2133 67.0262V65.4342C59.2133 64.9515 59.3547 64.4809 59.616 64.0782V62.3155C59.5774 61.8715 59.548 60.3596 60.6773 59.0716C61.6853 57.9182 63.268 57.3329 65.3774 57.3329C67.488 57.3329 69.0707 57.9182 70.0787 59.0729C71.2067 60.3596 71.1773 61.8715 71.1387 62.3155V64.0769C71.4 64.4796 71.5427 64.9502 71.5427 65.4342V67.0262C71.5427 67.8822 71.116 68.6529 70.4293 69.1115C70.124 69.9035 69.7253 70.6449 69.2413 71.3209C69.2027 71.3755 69.164 71.4275 69.1267 71.4782V72.4995L73.0413 74.5022C73.388 74.6742 73.7173 74.8955 74.0187 75.1595C74.5747 75.6449 74.6307 76.4862 74.1453 77.0409C73.8813 77.3422 73.5133 77.4969 73.1413 77.4969Z" fill="#C4D600"/>
<path fill-rule="evenodd" clip-rule="evenodd" d="M14.6794 2.66667C8.06203 2.66667 2.67936 8.05067 2.67936 14.6667C2.67936 21.2827 8.06203 26.6667 14.6794 26.6667C21.2967 26.6667 26.6794 21.2827 26.6794 14.6667C26.6794 8.05067 21.2967 2.66667 14.6794 2.66667ZM14.6794 29.3333C6.59269 29.3333 0.0126953 22.7533 0.0126953 14.6667C0.0126953 6.58 6.59269 0 14.6794 0C22.766 0 29.346 6.58 29.346 14.6667C29.346 22.7533 22.766 29.3333 14.6794 29.3333Z" fill="#C4D600"/>
<path fill-rule="evenodd" clip-rule="evenodd" d="M11.2133 16.3516V16.3596V16.3516ZM22.4746 26.8303C22.1626 26.8303 21.8506 26.7209 21.5973 26.5009C21.4679 26.3876 21.3319 26.2956 21.1919 26.2263L17.3466 24.3249C16.3879 23.8529 15.7933 22.8969 15.7933 21.8329V20.3409C15.7933 20.0129 15.9133 19.6969 16.1306 19.4529C16.2133 19.3596 16.3066 19.2396 16.4079 19.0983C16.8386 18.4983 17.1799 17.8196 17.4173 17.0836C17.5426 16.6996 17.8346 16.3943 18.2093 16.2503V14.7676C17.9253 14.5143 17.8053 14.2649 17.8053 13.8849V11.5823C17.8053 11.5236 17.8093 11.4649 17.8173 11.4063C17.8173 11.3969 17.8813 10.6863 17.3879 10.1409C16.9079 9.61293 15.9826 9.33293 14.7106 9.33293C13.4386 9.33293 12.5133 9.61293 12.0333 10.1409C11.5399 10.6863 11.6039 11.3983 11.6066 11.4276C11.6106 11.4703 11.6159 11.5396 11.6159 11.5823V13.8849C11.6159 14.2636 11.4546 14.6249 11.1719 14.8783L11.2106 16.2769C11.4746 16.4649 11.6613 16.7436 11.7346 17.0609C12.0546 18.4369 12.9066 19.4729 12.9146 19.4836C13.1133 19.7236 13.2266 20.0289 13.2266 20.3409V21.7956C13.2266 22.8183 12.6653 23.7556 11.7613 24.2423L8.16927 26.1809C8.03994 26.2503 7.90927 26.3449 7.78394 26.4636C7.2466 26.9649 6.40127 26.9369 5.89993 26.3996C5.39727 25.8609 5.42527 25.0183 5.9626 24.5143C6.25593 24.2409 6.57327 24.0116 6.90394 23.8329L10.4959 21.8956L10.5426 20.7596C10.1799 20.2383 9.6026 19.2903 9.25327 18.1063C8.8026 17.6409 8.5466 17.0196 8.5466 16.3596V14.7676C8.5466 14.2849 8.68794 13.8143 8.94927 13.4116V11.6489C8.9106 11.2049 8.88127 9.69293 10.0106 8.40493C11.0186 7.25159 12.6013 6.66626 14.7106 6.66626C16.8213 6.66626 18.4039 7.25159 19.4119 8.40626C20.5399 9.69293 20.5106 11.2049 20.4719 11.6489V13.4103C20.7333 13.8129 20.8759 14.2836 20.8759 14.7676V16.3596C20.8759 17.2156 20.4493 17.9863 19.7626 18.4449C19.4573 19.2369 19.0586 19.9783 18.5746 20.6543C18.5359 20.7089 18.4973 20.7609 18.4599 20.8116V21.8329L22.3746 23.8356C22.7213 24.0076 23.0506 24.2289 23.3519 24.4929C23.9079 24.9783 23.9639 25.8196 23.4786 26.3743C23.2146 26.6756 22.8466 26.8303 22.4746 26.8303Z" fill="#C4D600"/>
<path fill-rule="evenodd" clip-rule="evenodd" d="M65.3461 2.66667C58.7288 2.66667 53.3461 8.05067 53.3461 14.6667C53.3461 21.2827 58.7288 26.6667 65.3461 26.6667C71.9634 26.6667 77.3461 21.2827 77.3461 14.6667C77.3461 8.05067 71.9634 2.66667 65.3461 2.66667ZM65.3461 29.3333C57.2594 29.3333 50.6794 22.7533 50.6794 14.6667C50.6794 6.58 57.2594 0 65.3461 0C73.4328 0 80.0128 6.58 80.0128 14.6667C80.0128 22.7533 73.4328 29.3333 65.3461 29.3333Z" fill="#C4D600"/>
<path fill-rule="evenodd" clip-rule="evenodd" d="M61.88 16.3516V16.3596V16.3516ZM73.1413 26.8303C72.8293 26.8303 72.5174 26.7209 72.264 26.5009C72.1347 26.3876 71.9987 26.2956 71.8587 26.2263L68.0133 24.3249C67.0547 23.8529 66.46 22.8969 66.46 21.8329V20.3409C66.46 20.0129 66.58 19.6969 66.7973 19.4529C66.88 19.3596 66.9733 19.2396 67.0747 19.0983C67.5053 18.4983 67.8467 17.8196 68.084 17.0836C68.2093 16.6996 68.5014 16.3943 68.876 16.2503V14.7676C68.592 14.5143 68.472 14.2649 68.472 13.8849V11.5823C68.472 11.5236 68.476 11.4649 68.484 11.4063C68.484 11.3969 68.548 10.6863 68.0547 10.1409C67.5747 9.61293 66.6494 9.33293 65.3774 9.33293C64.1054 9.33293 63.18 9.61293 62.7 10.1409C62.2067 10.6863 62.2707 11.3983 62.2734 11.4276C62.2774 11.4703 62.2827 11.5396 62.2827 11.5823V13.8849C62.2827 14.2636 62.1214 14.6249 61.8387 14.8783L61.8774 16.2769C62.1414 16.4649 62.328 16.7436 62.4013 17.0609C62.7213 18.4369 63.5734 19.4729 63.5814 19.4836C63.78 19.7236 63.8933 20.0289 63.8933 20.3409V21.7956C63.8933 22.8183 63.332 23.7556 62.428 24.2423L58.836 26.1809C58.7067 26.2503 58.576 26.3449 58.4507 26.4636C57.9134 26.9649 57.0693 26.9369 56.5667 26.3996C56.064 25.8609 56.092 25.0183 56.6294 24.5143C56.9227 24.2409 57.24 24.0116 57.5707 23.8329L61.1627 21.8956L61.2094 20.7596C60.8467 20.2383 60.2693 19.2903 59.92 18.1063C59.4693 17.6409 59.2133 17.0196 59.2133 16.3596V14.7676C59.2133 14.2849 59.3547 13.8143 59.616 13.4116V11.6489C59.5774 11.2049 59.548 9.69293 60.6773 8.40493C61.6853 7.25159 63.268 6.66626 65.3774 6.66626C67.488 6.66626 69.0707 7.25159 70.0787 8.40626C71.2067 9.69293 71.1773 11.2049 71.1387 11.6489V13.4103C71.4 13.8129 71.5427 14.2836 71.5427 14.7676V16.3596C71.5427 17.2156 71.116 17.9863 70.4293 18.4449C70.124 19.2369 69.7253 19.9783 69.2413 20.6543C69.2027 20.7089 69.164 20.7609 69.1267 20.8116V21.8329L73.0413 23.8356C73.388 24.0076 73.7173 24.2289 74.0187 24.4929C74.5747 24.9783 74.6307 25.8196 74.1453 26.3743C73.8813 26.6756 73.5133 26.8303 73.1413 26.8303Z" fill="#C4D600"/>
<path fill-rule="evenodd" clip-rule="evenodd" d="M52.0128 16H28.0128C27.2754 16 26.6794 15.4027 26.6794 14.6667C26.6794 13.9307 27.2754 13.3334 28.0128 13.3334H52.0128C52.7501 13.3334 53.3461 13.9307 53.3461 14.6667C53.3461 15.4027 52.7501 16 52.0128 16Z" fill="#C4D600"/>
<path fill-rule="evenodd" clip-rule="evenodd" d="M65.346 53.3333C64.6087 53.3333 64.0127 52.736 64.0127 52V28C64.0127 27.264 64.6087 26.6666 65.346 26.6666C66.0834 26.6666 66.6794 27.264 66.6794 28V52C66.6794 52.736 66.0834 53.3333 65.346 53.3333Z" fill="#C4D600"/>
<path fill-rule="evenodd" clip-rule="evenodd" d="M52.0128 66.6667H28.0128C27.2754 66.6667 26.6794 66.0693 26.6794 65.3333C26.6794 64.5973 27.2754 64 28.0128 64H52.0128C52.7501 64 53.3461 64.5973 53.3461 65.3333C53.3461 66.0693 52.7501 66.6667 52.0128 66.6667Z" fill="#C4D600"/>
<path fill-rule="evenodd" clip-rule="evenodd" d="M14.6795 53.3333C13.9422 53.3333 13.3462 52.736 13.3462 52V28C13.3462 27.264 13.9422 26.6666 14.6795 26.6666C15.4169 26.6666 16.0129 27.264 16.0129 28V52C16.0129 52.736 15.4169 53.3333 14.6795 53.3333Z" fill="#C4D600"/>
<path fill-rule="evenodd" clip-rule="evenodd" d="M40.0128 36C39.2754 36 38.6794 35.4027 38.6794 34.6667V14.6667C38.6794 13.9307 39.2754 13.3334 40.0128 13.3334C40.7501 13.3334 41.3461 13.9307 41.3461 14.6667V34.6667C41.3461 35.4027 40.7501 36 40.0128 36Z" fill="#C4D600"/>
<path fill-rule="evenodd" clip-rule="evenodd" d="M40.0128 66.6667C39.2754 66.6667 38.6794 66.0693 38.6794 65.3333V45.3333C38.6794 44.5973 39.2754 44 40.0128 44C40.7501 44 41.3461 44.5973 41.3461 45.3333V65.3333C41.3461 66.0693 40.7501 66.6667 40.0128 66.6667Z" fill="#C4D600"/>
<path fill-rule="evenodd" clip-rule="evenodd" d="M34.6795 41.3333H14.6795C13.9422 41.3333 13.3462 40.736 13.3462 40C13.3462 39.264 13.9422 38.6666 14.6795 38.6666H34.6795C35.4169 38.6666 36.0129 39.264 36.0129 40C36.0129 40.736 35.4169 41.3333 34.6795 41.3333Z" fill="#C4D600"/>
<path fill-rule="evenodd" clip-rule="evenodd" d="M65.3463 41.3333H45.3463C44.6089 41.3333 44.0129 40.736 44.0129 40C44.0129 39.264 44.6089 38.6666 45.3463 38.6666H65.3463C66.0836 38.6666 66.6796 39.264 66.6796 40C66.6796 40.736 66.0836 41.3333 65.3463 41.3333Z" fill="#C4D600"/>
<path fill-rule="evenodd" clip-rule="evenodd" d="M40.0129 36C37.8075 36 36.0129 37.7947 36.0129 40C36.0129 42.2054 37.8075 44 40.0129 44C42.2182 44 44.0129 42.2054 44.0129 40C44.0129 37.7947 42.2182 36 40.0129 36ZM40.0129 46.6667C36.3369 46.6667 33.3462 43.676 33.3462 40C33.3462 36.324 36.3369 33.3334 40.0129 33.3334C43.6889 33.3334 46.6795 36.324 46.6795 40C46.6795 43.676 43.6889 46.6667 40.0129 46.6667Z" fill="#C4D600"/>
</g>
<defs>
<clipPath id="clip0_27_475">
<rect width="80" height="80" fill="white"/>
</clipPath>
</defs>
</svg>
