<svg width="70" height="50" viewBox="0 0 70 50" fill="none" xmlns="http://www.w3.org/2000/svg">
<path d="M0 0H70V50H0V0Z" fill="#DBEC30"/>
<path d="M11.4193 37.1127C11.3132 36.6901 11.0657 35.8098 9.82836 35.8098C9.08593 35.8098 7.98998 36.338 7.98998 38.3803C7.98998 39.6831 8.55563 40.8803 9.82836 40.8803C10.6768 40.8803 11.2425 40.3873 11.4193 39.4718H12.9395C12.6566 41.0563 11.596 42.1479 9.79301 42.1479C7.88392 42.1479 6.50513 40.8451 6.50513 38.3451C6.50513 35.8098 7.95462 34.5422 9.82836 34.5422C11.9849 34.5422 12.8688 36.0211 12.9395 37.1127H11.4193ZM14.7779 38.6268L16.5455 36.6197H18.2779L16.4041 38.662L18.3486 41.9718H16.6516L15.3789 39.6831L14.7779 40.2817V41.9718H13.3637V36.6197H14.7779V38.6268ZM23.4748 39.2606C23.4748 41.1972 22.1667 42.0775 20.7526 42.0775C19.3031 42.0775 17.995 41.1972 17.995 39.2606C17.995 37.3239 19.3031 36.4436 20.7526 36.4436C22.1667 36.4789 23.4748 37.3591 23.4748 39.2606ZM19.4445 39.2606C19.4445 39.9648 19.6566 40.9155 20.7526 40.9155C21.8486 40.9155 22.0253 39.9648 22.0253 39.2958C22.0253 38.5915 21.8132 37.676 20.7526 37.676C19.6566 37.6408 19.4445 38.5915 19.4445 39.2606Z" fill="#666666"/>
<path d="M28.7778 36.6197V41.9718H27.3637V37.7464H25.8434V39.4014C25.8434 41.4436 25.2424 42.1126 24.2525 42.1126C24.0051 42.1126 23.6162 42.0774 23.4041 42.007V40.9507C23.4394 40.9859 23.6162 40.9859 23.8283 40.9859C24.2525 40.9859 24.4647 40.7746 24.4647 39.1549V36.6197H28.7778ZM30.899 38.6267L32.6667 36.6197H34.399L32.5253 38.6619L34.4344 41.9718H32.7727L31.4647 39.683L30.899 40.2816V41.9718H29.4849V36.6197H30.899V38.6267ZM39.596 39.2605C39.596 41.1971 38.2879 42.0774 36.8738 42.0774C35.4243 42.0774 34.1162 41.1971 34.1162 39.2605C34.1162 37.3239 35.4243 36.4436 36.8738 36.4436C38.2879 36.4788 39.596 37.3591 39.596 39.2605ZM35.5657 39.2605C35.5657 39.9647 35.7778 40.9154 36.8738 40.9154C37.9697 40.9154 38.1465 39.9647 38.1465 39.2957C38.1465 38.5915 37.9344 37.676 36.8738 37.676C35.7778 37.6408 35.5657 38.5915 35.5657 39.2605Z" fill="#666666"/>
<path d="M40.0557 36.6198H42.4597C43.6617 36.6198 44.5456 37.1127 44.5456 37.993C44.5456 38.6268 44.1213 39.0141 43.5557 39.155C44.086 39.2958 44.7223 39.6479 44.7223 40.493C44.7223 41.4789 43.9799 41.9719 42.7425 41.9719H40.0557V36.6198ZM41.4345 38.7676H42.3536C42.8132 38.7676 43.1668 38.5916 43.1668 38.1691C43.1668 37.7465 42.8486 37.5705 42.389 37.5705H41.4698V38.7676H41.4345ZM41.4345 40.986H42.4597C42.99 40.986 43.3082 40.8099 43.3082 40.2817C43.3082 39.824 42.9547 39.5775 42.4597 39.5775H41.4345V40.986ZM50.3435 39.2606C50.3435 41.1972 49.0355 42.0775 47.6213 42.0775C46.1718 42.0775 44.8637 41.1972 44.8637 39.2606C44.8637 37.324 46.1718 36.4437 47.6213 36.4437C49.0355 36.4789 50.3435 37.3592 50.3435 39.2606ZM46.3132 39.2606C46.3132 39.9648 46.5254 40.9155 47.6213 40.9155C48.7173 40.9155 48.8941 39.9648 48.8941 39.2958C48.8941 38.5916 48.6819 37.6761 47.6213 37.6761C46.5254 37.6409 46.3132 38.5916 46.3132 39.2606ZM16.7223 33.3451C17.9243 33.3451 20.8587 33.1338 23.086 31.5141V32.7465H27.5405V27.3592L29.4142 25.4226L33.4446 32.7465H38.7829L32.6668 22.2888L38.6415 15.7043H33.1617L27.5405 22.1831V9.78878H23.086V11.7606C21.7425 10.3169 19.5153 9.19019 16.086 9.19019C8.66172 9.19019 7.28293 13.6972 7.28293 16.2324C7.28293 19.7184 9.15667 21.6198 12.4092 22.4296L17.0052 23.5564C19.4445 24.155 21.1769 24.6127 21.1769 26.4085C21.1769 28.8029 18.6314 29.3662 16.3688 29.3662C12.1971 29.3662 11.49 26.9367 11.49 25.6338H6.89404C6.9294 28.486 8.37889 33.3451 16.7223 33.3451ZM19.7627 19.6479L14.1769 18.3099C13.2223 18.0986 11.7375 17.7113 11.7375 15.9155C11.7375 13.8733 13.9294 13.1691 15.7324 13.1691C19.9041 13.1691 20.293 15.5986 20.3991 16.655H23.0506V20.9155C22.0961 20.3169 20.9648 19.9648 19.7627 19.6479Z" fill="#666666"/>
</svg>
