<svg width="112" height="80" viewBox="0 0 112 80" fill="none" xmlns="http://www.w3.org/2000/svg">
<path d="M0 0H112V80H0V0Z" fill="#DBEC30"/>
<path d="M18.2706 59.3798C18.1009 58.7037 17.7049 57.2953 15.7251 57.2953C14.5373 57.2953 12.7837 58.1403 12.7837 61.4079C12.7837 63.4925 13.6888 65.408 15.7251 65.408C17.0827 65.408 17.9878 64.6192 18.2706 63.1544H20.7029C20.2504 65.6896 18.5534 67.4361 15.6686 67.4361C12.614 67.4361 10.408 65.3516 10.408 61.3516C10.408 57.2953 12.7272 55.2671 15.7251 55.2671C19.1756 55.2671 20.5898 57.6333 20.7029 59.3798H18.2706ZM23.6443 61.8023L26.4726 58.591H29.2443L26.2463 61.8587L29.3575 67.1544H26.6423L24.6059 63.4925L23.6443 64.4502V67.1544H21.3817V58.591H23.6443V61.8023ZM37.5595 62.8164C37.5595 65.915 35.4665 67.3235 33.2039 67.3235C30.8847 67.3235 28.7918 65.915 28.7918 62.8164C28.7918 59.7178 30.8847 58.3094 33.2039 58.3094C35.4665 58.3657 37.5595 59.7741 37.5595 62.8164ZM31.111 62.8164C31.111 63.9432 31.4504 65.4643 33.2039 65.4643C34.9575 65.4643 35.2403 63.9432 35.2403 62.8727C35.2403 61.746 34.9009 60.2812 33.2039 60.2812C31.4504 60.2248 31.111 61.746 31.111 62.8164Z" fill="#666666"/>
<path d="M46.0448 58.5917V67.1551H43.7821V60.3946H41.3498V63.0425C41.3498 66.3101 40.3882 67.3805 38.8044 67.3805C38.4084 67.3805 37.7862 67.3242 37.4468 67.2115V65.5213C37.5033 65.5777 37.7862 65.5777 38.1256 65.5777C38.8044 65.5777 39.1437 65.2396 39.1437 62.6481V58.5917H46.0448ZM49.4387 61.803L52.267 58.5917H55.0387L52.0407 61.8594L55.0953 67.1551H52.4367L50.3438 63.4932L49.4387 64.4509V67.1551H47.1761V58.5917H49.4387V61.803ZM63.3539 62.8171C63.3539 65.9157 61.2609 67.3242 58.9983 67.3242C56.6791 67.3242 54.5862 65.9157 54.5862 62.8171C54.5862 59.7185 56.6791 58.3101 58.9983 58.3101C61.2609 58.3664 63.3539 59.7748 63.3539 62.8171ZM56.9054 62.8171C56.9054 63.9439 57.2448 65.465 58.9983 65.465C60.7518 65.465 61.0347 63.9439 61.0347 62.8734C61.0347 61.7467 60.6953 60.2819 58.9983 60.2819C57.2448 60.2256 56.9054 61.7467 56.9054 62.8171Z" fill="#666666"/>
<path d="M64.0891 58.5914H67.9356C69.8588 58.5914 71.273 59.3802 71.273 60.7886C71.273 61.8027 70.5942 62.4224 69.6891 62.6478C70.5376 62.8731 71.5558 63.4365 71.5558 64.7886C71.5558 66.3661 70.3679 67.1548 68.3881 67.1548H64.0891V58.5914ZM66.2952 62.028H67.7659C68.5012 62.028 69.0669 61.7464 69.0669 61.0703C69.0669 60.3942 68.5578 60.1125 67.8224 60.1125H66.3517V62.028H66.2952ZM66.2952 65.5773H67.9356C68.7841 65.5773 69.2932 65.2957 69.2932 64.4506C69.2932 63.7182 68.7275 63.3238 67.9356 63.3238H66.2952V65.5773ZM80.5497 62.8168C80.5497 65.9154 78.4568 67.3238 76.1942 67.3238C73.875 67.3238 71.782 65.9154 71.782 62.8168C71.782 59.7182 73.875 58.3097 76.1942 58.3097C78.4568 58.3661 80.5497 59.7745 80.5497 62.8168ZM74.1012 62.8168C74.1012 63.9435 74.4406 65.4647 76.1942 65.4647C77.9477 65.4647 78.2305 63.9435 78.2305 62.8731C78.2305 61.7464 77.8911 60.2816 76.1942 60.2816C74.4406 60.2252 74.1012 61.7464 74.1012 62.8168ZM26.7558 53.352C28.679 53.352 33.374 53.014 36.9376 50.4224V52.3942H44.0649V43.7745L47.0628 40.6759L53.5113 52.3942H62.0527L52.2669 35.6618L61.8265 25.1266H53.0588L44.0649 35.4928V15.6618H36.9376V18.8168C34.7881 16.5069 31.2245 14.7041 25.7376 14.7041C13.8588 14.7041 11.6527 21.9154 11.6527 25.9717C11.6527 31.5492 14.6507 34.5914 19.8548 35.8872L27.2083 37.69C31.1113 38.6478 33.883 39.3802 33.883 42.2534C33.883 46.0844 29.8103 46.9858 26.1901 46.9858C19.5154 46.9858 18.3841 43.0985 18.3841 41.014H11.0305C11.0871 45.5773 13.4063 53.352 26.7558 53.352ZM31.6204 31.4365L22.683 29.2956C21.1558 28.9576 18.78 28.3379 18.78 25.4647C18.78 22.1971 22.2871 21.0703 25.1719 21.0703C31.8467 21.0703 32.4689 24.9576 32.6386 26.6478H36.881V33.4647C35.3538 32.5069 33.5437 31.9435 31.6204 31.4365Z" fill="#666666"/>
</svg>
