<svg width="197" height="50" viewBox="0 0 197 50" fill="none" xmlns="http://www.w3.org/2000/svg">
<mask id="mask0_27_367" style="mask-type:alpha" maskUnits="userSpaceOnUse" x="1" y="38" width="22" height="12">
<path d="M22.4559 50C14.0141 41.9998 9.79319 37.9998 9.793 38L1.5368 46C0.687491 47.0973 0.90694 48.6613 2.02695 49.4934C2.46942 49.8221 3.00947 50 3.56476 50C3.57862 50 3.59247 50 3.60633 50C9.88951 50 16.1727 50 22.4559 50Z" fill="white"/>
</mask>
<g mask="url(#mask0_27_367)">
<path d="M22.4559 50C14.0141 41.9998 9.79319 37.9998 9.793 38L1.5368 46C0.687491 47.0973 0.90694 48.6613 2.02695 49.4934C2.46942 49.8221 3.00947 50 3.56476 50C3.57862 50 3.59247 50 3.60633 50C9.88951 50 16.1727 50 22.4559 50Z" fill="#FF4F12"/>
</g>
<path fill-rule="evenodd" clip-rule="evenodd" d="M30.6218 18L12.2487 0L1.99071 10.4684C0.71332 11.772 0 13.5091 0 15.3162L0 46C0 48.2091 1.82798 50 4.0829 50C2.6859 50 1.55341 48.8905 1.55341 47.5219C1.55341 46.863 1.82123 46.2313 2.29769 45.7662" fill="#7800FF"/>
<path fill-rule="evenodd" clip-rule="evenodd" d="M161.553 31.1738H157.135L151.857 36.4027V31.1738H148.121V45.5823H151.857V39.6273L157.224 45.5823H161.731L154.793 37.8551L161.553 31.1738Z" fill="#101828"/>
<mask id="mask1_27_367" style="mask-type:alpha" maskUnits="userSpaceOnUse" x="33" y="25" width="18" height="21">
<path d="M33.6841 25.248H50.8819V45.5825H33.6841V25.248Z" fill="white"/>
</mask>
<g mask="url(#mask1_27_367)">
<path fill-rule="evenodd" clip-rule="evenodd" d="M42.9946 35.0668H37.5978V28.676H42.9946C45.7224 28.676 46.9679 29.954 46.9679 31.8713C46.9679 33.7886 45.7224 35.0668 42.9946 35.0668ZM43.1131 25.248H33.6841V45.5827H37.5978V38.4946H43.1131C47.7981 38.4946 50.8819 36.1417 50.8819 31.8713C50.8819 27.6009 47.7981 25.248 43.1131 25.248Z" fill="#101828"/>
</g>
<path fill-rule="evenodd" clip-rule="evenodd" d="M59.7166 42.5612C57.5226 42.5612 55.4764 41.0215 55.4764 38.3779C55.4764 35.7345 57.5226 34.1951 59.7166 34.1951C61.9108 34.1951 63.9567 35.7345 63.9567 38.3779C63.9567 41.0215 61.9108 42.5612 59.7166 42.5612ZM59.7166 30.7671C55.6841 30.7671 51.6809 33.3236 51.6809 38.3779C51.6809 43.4329 55.6841 45.9889 59.7166 45.9889C63.7493 45.9889 67.7522 43.4329 67.7522 38.3779C67.7522 33.3236 63.7493 30.7671 59.7166 30.7671Z" fill="#101828"/>
<path fill-rule="evenodd" clip-rule="evenodd" d="M77.2906 42.5612C75.0371 42.5612 73.3766 40.9634 73.3766 38.3779C73.3766 35.8216 75.0963 34.1951 77.2906 34.1951C78.625 34.1951 79.7813 34.805 80.7005 36.1704L83.9027 34.3692C82.8355 32.1322 80.5225 30.7671 77.3202 30.7671C73.1393 30.7671 69.5811 33.7882 69.5811 38.3779C69.5811 42.9678 72.9616 45.9889 77.3202 45.9889C80.4632 45.9889 82.5684 44.5948 84.0511 42.1256L80.9673 40.4698C80.0778 41.6898 79.1288 42.5612 77.2906 42.5612Z" fill="#101828"/>
<path fill-rule="evenodd" clip-rule="evenodd" d="M117.07 39.3373C116.893 41.5448 116.447 42.0389 115.676 42.0389C115.15 42.0389 114.902 41.9816 114.542 41.8891L114.56 45.618C114.56 45.618 115.025 45.7569 115.884 45.7569C119.057 45.7569 120.243 43.7526 120.54 39.4824L120.896 34.4569H125.106V45.5537H128.842V31.1743H117.693L117.07 39.3373Z" fill="#101828"/>
<path fill-rule="evenodd" clip-rule="evenodd" d="M102.382 36.4609C102.915 34.8341 104.398 33.5558 106.355 33.5558C108.431 33.5558 109.824 34.6597 110.18 36.4609H102.382ZM106.474 30.7671C102.204 30.7671 98.7344 33.8173 98.7344 38.3779C98.7344 42.9388 102.204 45.9889 106.296 45.9889C109.528 45.9889 111.574 44.798 113.056 42.3288L110.091 40.8764C109.172 42.0093 108.341 42.8514 106.355 42.8514C104.161 42.8514 102.56 41.4573 102.322 39.2496H113.649V37.9713C113.649 33.7592 110.684 30.7671 106.474 30.7671Z" fill="#101828"/>
<path fill-rule="evenodd" clip-rule="evenodd" d="M134.581 36.4609C135.114 34.8341 136.597 33.5558 138.554 33.5558C140.629 33.5558 142.023 34.6597 142.379 36.4609H134.581ZM138.673 30.7671C134.403 30.7671 130.934 33.8173 130.934 38.3779C130.934 42.9388 134.403 45.9889 138.495 45.9889C141.727 45.9889 143.772 44.798 145.255 42.3288L142.29 40.8764C141.371 42.0093 140.541 42.8514 138.554 42.8514C136.36 42.8514 134.758 41.4573 134.521 39.2496H145.848V37.9713C145.848 33.7592 142.883 30.7671 138.673 30.7671Z" fill="#101828"/>
<path fill-rule="evenodd" clip-rule="evenodd" d="M85.2134 34.3691H89.6019V45.5823H93.3376V34.3691H97.7264V31.1738H85.2134V34.3691Z" fill="#101828"/>
<path fill-rule="evenodd" clip-rule="evenodd" d="M169.148 42.5612C166.954 42.5612 164.908 41.0215 164.908 38.3779C164.908 35.7345 166.954 34.1951 169.148 34.1951C171.343 34.1951 173.389 35.7345 173.389 38.3779C173.389 41.0215 171.343 42.5612 169.148 42.5612ZM169.148 30.7671C165.116 30.7671 161.113 33.3234 161.113 38.3779C161.113 43.4326 165.116 45.9889 169.148 45.9889C173.181 45.9889 177.184 43.4326 177.184 38.3779C177.184 33.3234 173.181 30.7671 169.148 30.7671Z" fill="#101828"/>
<path fill-rule="evenodd" clip-rule="evenodd" d="M192.05 31.1714L187.995 41.2623L183.94 31.1714H179.057V45.5538H182.608V36.4487L186.545 45.5538H189.446L193.382 36.4487V45.5538H196.934V31.1714H192.05Z" fill="#101828"/>
</svg>
