<svg width="90" height="90" viewBox="0 0 90 90" fill="none" xmlns="http://www.w3.org/2000/svg">
<path d="M55.1042 33.2917C55.1042 28.1875 58.5625 23.2083 60.4583 24.1458C62.6042 25.2292 58.8333 30.0417 55.1042 33.2917ZM31.5417 35.1458C31.5417 31.0417 35.6042 23.2083 38.0833 24.0417C41 25.0208 35.6458 32.9167 31.5417 35.1458ZM27.4167 64.5625C25.5417 64.6458 24.3125 63.4583 24.3125 61.4583C24.3125 56.1042 31.75 50.9792 37.3542 48.2292C36.3542 55.7292 33.8333 64.2708 27.4167 64.5625ZM61.7083 47.125C57.4792 47.125 54.2292 50.25 54.2292 53.9792C54.2292 57.1042 56.1042 59.5833 58.5833 59.5833C59.4583 59.5833 60.3333 59.0833 60.3333 57.9583C60.3333 56.3333 58.1875 55.9375 58.3542 53.5208C58.4583 51.9167 59.9583 50.8542 61.4583 50.8542C64.4583 50.8542 65.8542 53.75 65.8542 56.75C65.7292 61.3542 62.3333 64.5833 58.3542 64.5833C53.125 64.5833 49.75 59.6042 49.75 54.2292C49.75 46.25 54.9792 43.125 57.7292 42.3958C57.75 42.3958 64.8958 43.6667 64.6667 40.5208C64.5625 39.1458 62.5 38.6042 61.0208 38.5417C59.3542 38.4792 57.7083 39.0625 57.7083 39.0625C56.8333 38.625 56.2292 37.7708 55.8542 36.7708C60.9583 32.8958 64.5833 29.1667 64.5833 24.9375C64.5833 22.6875 63.0833 20.7083 60.2292 20.7083C55.125 20.7083 51.25 27.1875 51.25 33.0417C51.25 34.0417 51.25 35.0417 51.5 35.9167C48.25 38.2917 45.8542 39.75 41.4792 42.375C41.4792 41.8333 41.5833 40.4167 41.9583 38.6042C43.4583 36.9792 45.5 34.5625 45.5 32.6875C45.5 31.8125 45 31.0625 44 31.0625C41.5 31.0625 39.6458 34.7917 39.1458 37.4167C38.0208 38.7917 35.7708 40.5417 33.9167 40.5417C32.4167 40.5417 31.9167 39.1667 31.7917 38.6667C36.5208 37.0417 42.3958 30.5625 42.3958 24.7083C42.3958 23.4583 41.8958 20.7083 38.1667 20.7083C32.5625 20.7083 27.8125 29.0625 27.8125 35.5417C25.8125 35.5417 25.0625 33.4167 25.0625 31.8125C25.0625 30.1875 25.6875 28.5625 25.6875 28.0625C25.6875 27.5625 25.4375 26.9375 24.6875 26.9375C22.8125 26.9375 21.6875 29.4375 21.6875 32.2917C21.8125 36.2708 24.4375 38.7708 27.9167 39.0208C28.4167 41.3958 30.5417 43.625 33.1458 43.625C34.7708 43.625 36.7708 43.125 38.125 41.875C38 42.75 37.875 43.5 37.75 44.25C32.2708 47.125 28.2708 49.1042 24.6667 52.3542C21.7917 54.9792 20.1875 58.4583 20.1875 61.2083C20.1875 64.9583 22.5625 68.4375 27.4167 68.4375C33.1458 68.4375 37.5208 63.8333 39.625 57.4583C40.625 54.4583 41.0208 50.1042 41.2708 46.125C47 42.8958 49.7292 41 52.7083 38.8958C53.0833 39.5208 53.4583 40.0208 53.9583 40.3958C51.3333 41.7708 45.1042 45.625 45.1042 54.7292C45.1042 61.2083 49.4583 68.4375 58.0625 68.4375C65.1667 68.4375 70.0417 62.5833 70.0417 56.9792C70.0625 51.8542 67.1875 47.125 61.7083 47.125ZM83.125 57.8333C83.1042 57.875 83.0417 57.9375 82.8958 57.875C82.7917 57.8333 82.75 57.7708 82.75 57.7083C82.75 57.625 84.25 53.2083 84.25 48.1042C84.2292 42.625 82 39.25 79.1458 39.25C77.3958 39.25 76.1458 40.5 76.1458 42.375C76.1458 45.75 80.25 46 80.25 53.3542C80.25 56.3542 79.625 59.2083 78.625 62.3333C74.0417 77.9167 59.3333 85.1458 45 85.1458C38.3958 85.1458 33.6875 83.7917 32.2917 83.1667C32.2292 83.1458 32.1875 83.0208 32.2292 82.9167C32.2708 82.8333 32.3542 82.7708 32.4167 82.7917C32.9792 83.0208 37.0208 84.2708 42 84.2708C47.4792 84.2708 50.7292 82.0208 50.7292 79.2917C50.7292 77.5417 49.3542 76.1875 47.6042 76.1875C44.2292 76.1875 43.9792 80.4167 36.75 80.4167C33.625 80.4167 30.8958 79.7917 27.6458 78.7917C12.1875 74.0625 4.8125 59.4792 4.83333 45C4.83333 37.9583 6.8125 32.3542 6.85417 32.2917C6.875 32.25 6.95833 32.2083 7.08333 32.25C7.1875 32.2917 7.22917 32.375 7.20833 32.4167C7.02083 33 5.70833 37.0208 5.70833 42C5.70833 47.4792 7.95833 50.7292 10.8125 50.7292C12.4375 50.7292 13.8125 49.4792 13.8125 47.7292C13.8125 44.3542 9.70833 43.9792 9.70833 36.75C9.70833 33.625 10.3333 30.8958 11.3333 27.6458C16.0625 12.1875 30.6458 4.9375 45 4.83333C51.6667 4.79167 57.5 6.77083 57.7083 6.95833C57.75 7 57.7917 7.08333 57.75 7.1875C57.7083 7.3125 57.625 7.3125 57.5833 7.3125C57.5208 7.3125 53.7292 5.72917 47.9792 5.72917C42.625 5.72917 39.25 7.97917 39.25 10.8333C39.25 12.4583 40.5 13.8333 42.3542 13.8333C45.7292 13.8333 45.9792 9.72917 53.2083 9.72917C56.3333 9.72917 59.0625 10.3542 62.3125 11.3542C77.9167 16.0833 85 30.7917 85.1458 45C85.2083 52.2708 83.1458 57.7917 83.125 57.8333ZM45 2.125C21.3125 2.125 2.125 21.3333 2.125 45C2.125 68.6875 21.3333 87.875 45 87.875C68.6875 87.875 87.875 68.6875 87.875 45C87.875 21.4375 68.6875 2.125 45 2.125ZM45 90C20.1875 90 0 69.9375 0 45C0 20.1875 20.1875 0 45 0C69.7917 0 90 20.1875 90 45C90 69.9375 69.7917 90 45 90Z" fill="#005CB9"/>
</svg>
